<?xml version="1.0" standalone="no"?>
<!DOCTYPE svg PUBLIC "-//W3C//DTD SVG 20010904//EN"
 "http://www.w3.org/TR/2001/REC-SVG-20010904/DTD/svg10.dtd">
<svg version="1.0" xmlns="http://www.w3.org/2000/svg"
 width="3000.000000pt" height="3000.000000pt" viewBox="0 0 3000.000000 3000.000000"
 preserveAspectRatio="xMidYMid meet">

<g transform="translate(0.000000,3000.000000) scale(0.100000,-0.100000)"
fill="#000000" stroke="none">
<path d="M14505 26940 c-344 -24 -622 -136 -885 -355 -196 -164 -325 -331
-595 -770 -138 -223 -186 -287 -413 -553 -211 -247 -263 -325 -318 -471 -94
-250 -114 -483 -69 -801 25 -170 49 -226 169 -385 88 -117 159 -263 201 -420
20 -71 51 -174 69 -229 31 -90 32 -99 17 -111 -9 -7 -41 -33 -71 -57 -138
-109 -197 -348 -128 -513 14 -33 42 -99 62 -147 47 -113 73 -215 86 -343 21
-210 79 -362 175 -460 61 -63 154 -112 230 -121 92 -10 93 -11 105 -57 59
-233 153 -405 310 -571 89 -94 113 -142 113 -226 -1 -88 -87 -449 -112 -464
-4 -3 -31 11 -60 30 -75 51 -112 64 -178 64 -110 0 -196 -73 -340 -288 -118
-176 -152 -197 -338 -207 -139 -8 -214 -24 -305 -66 -74 -34 -132 -85 -163
-144 -18 -32 -22 -57 -22 -130 0 -86 2 -94 43 -179 23 -49 41 -90 40 -91 -18
-17 -319 -175 -573 -302 -379 -189 -451 -229 -695 -381 -103 -65 -273 -159
-385 -213 -110 -53 -239 -122 -287 -152 -206 -130 -388 -293 -508 -455 l-54
-74 -32 94 c-17 51 -54 147 -82 213 -28 67 -80 202 -115 300 -36 99 -106 286
-157 415 -242 616 -526 1409 -542 1510 -13 86 -30 116 -72 130 -44 14 -67 8
-206 -56 -263 -120 -1088 -441 -1475 -574 -262 -90 -396 -148 -805 -345 -365
-176 -390 -193 -397 -272 -4 -43 17 -109 190 -598 193 -545 246 -688 410
-1105 139 -354 740 -1842 815 -2020 187 -440 473 -1063 505 -1098 11 -12 32
-22 46 -22 66 0 255 63 421 139 96 44 176 77 178 73 4 -13 -62 -237 -166 -562
-146 -458 -337 -1092 -382 -1267 -97 -382 -120 -701 -74 -1053 34 -267 110
-518 269 -895 54 -126 135 -324 180 -440 198 -503 374 -850 610 -1205 124
-186 217 -297 324 -382 162 -129 289 -191 556 -272 223 -67 579 -212 985 -401
261 -121 237 -115 500 -136 129 -11 363 -24 520 -28 304 -10 329 -13 393 -64
62 -48 143 -76 218 -77 79 0 373 43 449 66 72 21 404 177 556 260 148 82 314
190 419 275 108 87 435 414 519 519 100 126 181 252 238 370 27 58 60 125 71
149 31 63 59 80 162 95 50 8 141 24 204 36 62 11 115 19 117 17 2 -2 -12 -41
-31 -88 -95 -230 -84 -407 33 -562 115 -151 323 -267 616 -342 74 -19 272 -57
441 -85 462 -76 614 -116 790 -205 101 -52 127 -54 227 -17 l57 22 148 -50
c196 -67 444 -143 568 -174 216 -54 241 -56 935 -57 641 -1 817 5 1125 37 192
20 309 44 459 95 337 112 625 335 863 667 106 148 199 319 354 649 185 392
417 861 499 1008 34 61 129 224 211 363 159 267 199 346 243 479 55 164 66
248 76 548 5 154 14 415 19 580 14 410 -2 687 -50 870 -6 22 -47 162 -91 310
-134 454 -188 679 -243 1005 -28 169 -72 484 -81 585 l-6 71 96 58 c79 48 134
95 304 260 114 110 315 305 446 431 132 127 277 275 323 330 389 462 541 995
422 1470 -27 107 -70 220 -204 535 -62 146 -129 310 -149 365 -79 210 -183
434 -319 680 -168 306 -320 465 -552 580 -192 95 -322 120 -704 137 -403 17
-628 -7 -1051 -115 -564 -145 -1031 -299 -1295 -429 -207 -102 -439 -222 -505
-262 l-75 -44 -43 24 c-181 105 -403 190 -572 219 -52 9 -100 18 -106 20 -8 2
-6 24 7 72 33 117 21 240 -31 311 -39 55 -101 80 -234 98 -201 26 -230 33
-311 73 -93 46 -165 115 -247 236 -73 107 -112 128 -223 123 -94 -5 -149 -27
-237 -93 -33 -25 -64 -45 -69 -45 -18 0 -67 220 -100 450 l-12 86 64 84 c122
160 233 359 334 596 25 60 53 115 62 122 9 6 31 12 49 12 41 0 163 79 226 148
93 100 133 182 169 350 33 149 55 216 125 362 113 238 123 395 35 517 -31 43
-134 103 -178 103 -12 0 -23 5 -23 10 0 24 183 561 258 755 44 116 90 246 102
290 12 44 44 139 70 210 134 362 156 453 147 609 -9 168 -38 235 -211 498
-139 211 -218 358 -302 565 -128 316 -279 531 -573 815 -191 185 -351 285
-516 322 -283 63 -381 72 -600 56 -331 -25 -294 -27 -477 29 -297 92 -449 120
-673 126 -88 2 -214 0 -280 -5z m795 -970 c29 -5 108 -30 177 -55 100 -36 147
-48 232 -56 92 -8 117 -15 187 -49 60 -29 96 -55 132 -95 111 -122 204 -298
242 -459 31 -133 40 -238 40 -491 0 -284 12 -490 35 -599 19 -90 63 -207 100
-266 14 -22 25 -41 25 -43 0 -2 -69 -7 -152 -10 -233 -10 -381 -53 -461 -134
-29 -28 -37 -44 -37 -72 0 -42 7 -53 40 -71 39 -21 235 -24 428 -6 225 21 372
21 443 0 63 -19 72 -25 164 -107 165 -148 198 -187 257 -302 143 -280 189
-531 167 -911 -6 -103 -8 -197 -5 -210 7 -27 38 -39 65 -25 15 8 28 49 59 178
23 93 44 184 47 203 14 76 38 166 48 178 22 27 117 -29 146 -87 51 -98 37
-198 -54 -391 -67 -143 -105 -257 -129 -392 -26 -145 -58 -209 -155 -312 -49
-51 -126 -104 -136 -94 -2 2 18 73 46 158 51 160 54 194 18 205 -37 12 -22 41
-246 -505 -121 -294 -270 -558 -390 -689 -180 -199 -645 -575 -1023 -828 -207
-139 -267 -157 -477 -141 -149 11 -260 38 -330 80 -126 77 -545 397 -773 593
-147 125 -460 434 -537 530 -72 90 -151 217 -187 303 -26 61 -181 553 -240
761 -39 135 -49 153 -80 149 -16 -2 -22 -11 -24 -36 -5 -48 31 -226 83 -408
24 -87 42 -160 40 -162 -8 -9 -101 20 -141 43 -56 33 -121 107 -151 172 -14
30 -32 96 -40 146 -57 371 -75 442 -151 597 -41 85 -46 102 -46 165 0 85 23
166 66 231 32 48 93 97 111 91 5 -1 22 -36 37 -77 15 -41 54 -136 87 -210 33
-74 62 -143 66 -152 3 -9 15 -22 26 -28 17 -8 24 -7 41 10 25 25 25 49 -1 197
-28 160 -31 419 -6 513 39 143 142 308 262 418 52 47 79 63 132 80 110 35 209
52 353 63 77 5 180 21 240 35 140 34 253 39 434 20 198 -21 233 -21 276 5 48
30 59 48 60 96 0 79 -85 141 -219 159 l-50 6 72 82 c142 160 229 306 268 453
17 62 22 107 22 223 0 164 -21 302 -79 527 -44 173 -50 237 -30 333 46 220
218 411 417 464 66 18 91 19 159 6z m-1515 -5732 c241 -220 625 -526 870 -693
157 -107 250 -142 442 -165 152 -19 289 10 443 92 172 91 677 468 953 711 49
44 91 77 93 74 3 -3 19 -81 35 -173 16 -93 41 -206 54 -251 14 -44 22 -88 19
-97 -3 -9 -97 -98 -208 -198 -110 -100 -303 -283 -427 -407 -221 -221 -329
-345 -442 -506 -88 -127 -93 -129 -218 -108 -135 22 -327 20 -432 -5 -48 -12
-100 -31 -115 -42 -17 -13 -35 -18 -45 -14 -9 3 -65 61 -123 128 -59 66 -190
211 -293 321 -102 110 -277 302 -388 425 -111 124 -258 279 -328 344 -100 94
-126 124 -122 140 2 12 21 75 41 141 21 66 47 177 59 248 12 70 24 127 27 127
3 0 50 -41 105 -92z m-512 -374 c127 -64 395 -324 813 -789 149 -165 317 -350
375 -410 135 -144 269 -311 269 -337 0 -11 -9 -63 -19 -116 -11 -54 -25 -144
-31 -202 -19 -178 -21 -188 -33 -193 -16 -6 -479 46 -642 73 -248 40 -489 102
-662 171 -284 113 -659 363 -889 593 -207 208 -329 413 -308 523 10 53 68 111
149 150 68 32 72 33 205 33 230 0 313 47 450 255 73 111 157 212 199 241 42
28 79 30 124 8z m3939 -21 c14 -16 42 -54 62 -85 86 -132 203 -228 332 -273
41 -14 126 -31 205 -40 164 -19 199 -28 227 -58 34 -36 48 -122 34 -199 -36
-198 -263 -486 -542 -690 -266 -193 -601 -377 -870 -477 -304 -112 -758 -221
-923 -221 l-36 0 1 178 c1 205 -18 339 -58 398 -13 19 -24 45 -24 57 0 24 108
168 249 332 122 142 502 520 731 727 366 330 433 378 536 378 42 0 54 -4 76
-27z m-8641 -44 c4 -8 15 -47 24 -88 37 -163 271 -815 610 -1696 122 -319 286
-768 364 -998 146 -433 493 -1368 624 -1682 41 -99 77 -190 81 -203 9 -28 -12
-55 -57 -73 -18 -7 -189 -82 -381 -167 -192 -85 -462 -198 -600 -252 -360
-140 -459 -182 -658 -276 -97 -46 -186 -84 -197 -84 -11 0 -27 10 -35 23 -19
29 -176 413 -479 1177 -135 338 -361 896 -502 1240 -141 344 -355 868 -475
1165 -236 585 -307 756 -394 939 -58 124 -64 147 -43 163 19 16 284 117 762
293 671 247 963 364 1225 488 58 28 109 49 114 48 5 -1 13 -9 17 -17z m13502
-304 c270 -35 456 -122 623 -289 92 -92 153 -179 246 -351 140 -257 229 -449
312 -671 24 -67 87 -220 139 -340 176 -409 220 -543 237 -726 28 -297 -78
-667 -277 -967 -103 -155 -199 -261 -424 -473 -84 -80 -278 -266 -429 -414
-306 -298 -331 -317 -548 -404 -198 -79 -301 -139 -487 -285 -516 -403 -950
-947 -1412 -1770 -116 -206 -156 -287 -179 -358 l-18 -58 -65 65 c-93 91 -121
99 -256 72 -38 -8 -144 -18 -234 -22 l-164 -7 7 109 c8 123 26 212 85 429 135
489 142 744 29 1109 -63 207 -68 237 -78 551 -12 362 -25 523 -50 622 -24 94
-159 375 -236 490 -30 45 -94 124 -142 175 -97 103 -135 154 -179 243 -55 109
-55 110 -43 730 11 608 37 1077 64 1180 37 138 175 373 281 479 70 70 149 123
271 183 55 27 160 81 234 120 172 92 301 143 630 253 590 198 1078 316 1400
340 156 12 523 3 663 -15z m-3796 -586 c121 -26 274 -79 372 -129 126 -64 125
-54 16 -138 -116 -91 -288 -254 -374 -355 -36 -42 -66 -75 -67 -74 -2 1 -17
115 -34 252 -17 138 -37 288 -45 335 -21 120 -20 130 10 130 14 0 69 -9 122
-21z m-11887 -171 c40 -95 149 -362 241 -593 92 -231 217 -541 279 -690 272
-654 776 -1895 1119 -2754 78 -194 155 -380 172 -413 17 -33 28 -65 26 -72 -7
-19 -435 -218 -460 -214 -18 2 -46 56 -169 333 -255 573 -379 870 -677 1620
-159 402 -344 863 -409 1025 -66 162 -153 390 -195 505 -42 116 -115 318 -162
450 -48 132 -134 358 -191 502 -57 145 -104 267 -104 272 0 9 67 39 225 100
44 17 107 47 140 65 33 19 67 34 75 35 11 1 38 -51 90 -171z m5760 15 c0 -30
-29 -170 -70 -343 -52 -217 -65 -302 -95 -635 -35 -384 -79 -798 -120 -1120
-36 -289 -382 -2805 -390 -2843 -8 -32 -24 -21 -152 99 -183 172 -278 224
-410 221 l-71 -1 -25 37 c-43 65 -63 112 -142 327 -106 288 -195 516 -315 805
-246 591 -680 1780 -680 1859 1 67 233 331 405 461 122 91 191 132 428 254
194 99 334 179 627 355 74 45 275 151 445 236 171 85 364 188 430 229 66 40
123 74 128 75 4 0 7 -7 7 -16z m3235 -344 c111 -14 137 -27 164 -82 56 -116
52 -539 -6 -639 -26 -44 -66 -66 -159 -84 -99 -20 -323 -22 -463 -4 -88 11
-109 17 -129 37 -25 25 -25 27 -19 147 10 190 55 482 84 538 19 38 54 59 132
80 78 20 261 23 396 7z m1758 -421 c4 -68 10 -185 13 -262 l7 -138 -40 25
c-125 79 -306 154 -488 203 -66 17 -113 34 -105 37 8 3 60 23 115 43 110 40
216 86 375 162 58 28 108 51 111 51 3 1 9 -54 12 -121z m-3728 -57 c99 -34
207 -68 239 -77 l60 -16 -55 -23 c-92 -37 -269 -130 -379 -199 -58 -35 -106
-63 -108 -62 -1 2 2 52 8 112 5 60 10 160 10 223 0 113 0 113 23 108 12 -3
103 -33 202 -66z m3020 -155 c402 -108 648 -233 900 -457 110 -98 338 -319
333 -324 -12 -13 -206 -56 -294 -66 -156 -18 -411 11 -691 77 -251 59 -331 89
-547 205 -214 115 -327 193 -424 293 -91 92 -95 105 -48 154 19 19 41 25 151
37 167 20 328 49 435 79 47 13 87 24 90 25 3 0 46 -10 95 -23z m-2230 -15 c88
-11 171 -23 185 -26 14 -3 72 -9 129 -14 57 -5 108 -14 113 -19 5 -5 13 -26
18 -46 16 -72 1 -94 -178 -265 -272 -259 -385 -346 -566 -431 -127 -61 -228
-94 -381 -126 -215 -46 -583 -43 -812 6 -85 19 -85 24 -16 86 34 30 120 119
191 197 167 184 266 280 344 335 180 125 419 251 577 304 101 33 142 33 396
-1z m1388 -290 c82 -103 191 -188 395 -305 246 -141 369 -193 597 -252 165
-43 461 -94 542 -94 87 0 89 -4 97 -215 6 -163 31 -546 41 -631 2 -24 -1 -48
-8 -58 -12 -16 -281 -113 -592 -213 -428 -137 -768 -202 -1175 -223 -193 -10
-687 1 -917 21 -110 9 -618 106 -969 185 -282 63 -518 140 -529 173 -3 9 4
141 15 292 12 150 20 329 19 397 -1 67 0 125 3 128 3 3 66 10 139 15 386 28
643 109 910 287 129 87 240 182 439 380 l155 154 105 -17 c157 -26 385 -31
495 -12 50 9 108 23 130 31 22 8 45 15 51 15 6 1 32 -25 57 -58z m-5103 -2881
c80 -201 154 -385 163 -409 l18 -44 -153 7 c-235 11 -398 24 -567 47 -154 21
-241 21 -282 -2 -16 -8 -24 -6 -40 13 -34 41 -96 180 -120 271 -21 82 -21 89
-6 105 21 21 806 381 826 378 10 -1 68 -133 161 -366z m11529 113 c6 -21 14
-65 20 -98 5 -33 16 -100 25 -150 8 -49 20 -150 26 -224 6 -74 17 -164 25
-201 28 -134 118 -483 226 -872 60 -218 116 -428 124 -468 29 -140 38 -342 25
-592 -7 -128 -16 -395 -20 -593 -9 -391 -12 -417 -80 -645 -44 -146 -77 -214
-232 -471 -218 -361 -392 -696 -673 -1294 -233 -498 -326 -654 -523 -880 -179
-205 -448 -384 -691 -459 -150 -47 -461 -88 -796 -106 -293 -16 -1349 -4
-1475 17 -79 13 -308 77 -727 204 l-71 22 40 51 c82 103 169 336 208 561 35
203 63 491 76 788 l7 157 91 0 c83 -1 234 -15 243 -23 1 -2 -56 -171 -127
-376 -137 -391 -147 -434 -121 -513 27 -81 138 -140 303 -159 238 -29 286 -24
372 32 78 52 105 103 246 454 72 182 136 335 141 340 6 6 79 10 177 10 226 0
237 7 385 221 219 319 265 384 314 445 29 35 83 105 120 154 37 50 98 131 135
180 97 128 128 193 128 270 l0 62 63 39 c34 21 110 85 168 143 93 92 109 113
124 162 22 70 15 128 -25 203 l-28 54 64 201 c71 224 89 317 79 404 -15 140
-50 188 -284 401 -72 66 -131 126 -131 133 0 27 94 252 161 384 38 75 101 190
140 255 90 150 389 599 483 724 255 342 637 723 899 897 86 58 330 192 349
193 4 0 12 -17 17 -37z m-12687 -205 c16 -12 93 -181 159 -346 l29 -72 -32
-29 c-85 -74 -242 -203 -314 -258 -103 -79 -157 -140 -186 -212 -19 -47 -23
-75 -23 -176 0 -108 5 -141 48 -324 l47 -204 -35 -70 c-68 -135 -44 -217 111
-377 52 -54 117 -114 144 -132 l48 -33 -2 -70 c-1 -62 3 -79 35 -145 34 -70
199 -326 323 -501 29 -41 62 -91 71 -110 10 -19 64 -108 120 -199 56 -91 112
-184 124 -208 32 -62 85 -117 139 -144 40 -19 69 -24 192 -29 140 -6 300 -27
300 -39 0 -5 -280 -161 -385 -213 -180 -90 -351 -257 -486 -474 -66 -106 -264
-345 -406 -494 -47 -48 -83 -94 -83 -105 0 -50 56 -58 118 -16 64 42 381 419
487 577 160 239 280 338 601 497 183 91 231 121 337 210 198 165 474 238 799
210 79 -7 227 -25 329 -41 166 -26 342 -44 526 -54 35 -2 65 -6 69 -10 10 -10
-168 -299 -326 -527 -244 -351 -552 -815 -645 -970 -190 -317 -295 -598 -295
-788 1 -203 125 -435 313 -587 60 -48 171 -213 244 -360 l54 -110 -43 -6 c-44
-7 -523 7 -568 16 -14 3 -90 9 -170 14 -98 6 -167 16 -213 31 -37 11 -207 84
-379 161 -479 215 -596 262 -886 350 -268 81 -383 143 -531 284 -96 92 -186
209 -301 390 -219 344 -376 665 -568 1160 -39 99 -114 284 -167 410 -205 488
-267 751 -269 1150 -1 370 37 559 268 1307 216 699 294 962 301 1008 4 25 27
106 52 181 l44 136 187 83 c103 45 255 109 337 142 83 32 188 74 235 93 96 39
100 40 122 23z m625 -413 c214 -41 276 -46 613 -51 179 -2 350 -9 380 -15 84
-17 175 -70 275 -160 124 -113 256 -220 485 -395 324 -247 385 -291 681 -492
156 -106 326 -224 378 -261 76 -56 215 -128 715 -374 662 -326 766 -373 1281
-584 182 -74 340 -141 351 -148 28 -18 49 -140 48 -280 0 -83 -4 -110 -24
-159 l-25 -59 -85 -23 c-47 -13 -131 -39 -187 -58 l-103 -35 0 42 c0 104 -52
180 -133 192 -23 4 -144 -3 -269 -14 -276 -26 -467 -27 -746 -4 -239 19 -394
12 -595 -27 -159 -31 -229 -55 -304 -107 l-68 -47 -200 12 c-179 11 -324 28
-640 77 -58 8 -166 15 -257 15 l-156 0 -79 41 c-163 86 -433 282 -433 314 0 8
12 22 26 32 55 37 134 117 134 134 0 26 -29 39 -59 28 -13 -6 -74 -40 -135
-77 -61 -37 -162 -94 -225 -127 -63 -33 -119 -68 -125 -77 -15 -25 4 -52 39
-56 32 -4 131 29 191 64 l40 24 45 -46 c55 -58 181 -156 281 -222 l77 -50 -62
-22 c-78 -28 -163 -71 -244 -122 l-63 -40 -137 16 c-76 9 -212 19 -302 22
-147 7 -166 9 -186 28 -28 26 -311 493 -320 527 -6 22 31 62 353 388 198 199
368 377 377 396 21 37 15 65 -15 65 -22 0 -138 -97 -267 -223 l-81 -80 -84 5
c-63 4 -103 13 -165 38 -68 27 -85 30 -98 20 -24 -20 -18 -46 21 -80 43 -37
66 -47 158 -69 l69 -16 -156 -150 c-86 -82 -163 -153 -172 -157 -10 -6 -21 -2
-35 14 -29 33 -244 356 -268 405 -73 142 -40 239 106 316 83 44 356 208 634
382 164 103 208 134 208 151 0 42 -22 47 -92 21 -84 -32 -144 -63 -251 -131
-147 -92 -170 -92 -332 4 -106 63 -146 73 -153 37 -6 -29 63 -103 144 -153
l76 -47 -54 -34 c-29 -19 -102 -60 -161 -91 -60 -31 -138 -81 -173 -110 l-65
-53 -99 91 c-54 50 -113 112 -130 138 -27 41 -31 54 -28 97 4 45 18 71 145
260 165 244 245 348 343 438 89 82 126 95 305 108 168 11 320 31 488 63 173
34 244 73 204 113 -15 15 -27 15 -139 -1 -237 -34 -344 -47 -540 -65 -177 -17
-204 -22 -262 -49 -114 -53 -271 -220 -425 -450 l-75 -113 -40 158 c-49 199
-54 316 -17 401 21 46 41 66 165 165 77 61 202 164 277 228 206 177 207 177
426 134z m9698 -1676 c31 -9 59 -32 125 -103 134 -144 237 -243 345 -329 57
-45 111 -97 125 -121 23 -38 25 -51 25 -156 -1 -109 -3 -122 -47 -255 -25 -77
-48 -148 -49 -158 -3 -13 -32 26 -87 115 -181 290 -291 421 -396 473 -50 24
-77 30 -219 41 -128 11 -188 21 -287 49 -161 46 -381 91 -403 82 -10 -4 -17
-17 -17 -31 0 -20 10 -30 53 -50 94 -46 366 -106 705 -156 113 -16 144 -33
232 -127 100 -108 167 -205 319 -467 89 -154 121 -219 121 -243 0 -70 -48
-129 -204 -255 l-79 -63 -52 51 c-29 28 -99 80 -155 115 -56 35 -129 84 -162
108 l-61 43 69 37 c80 42 167 121 162 146 -8 43 -31 39 -159 -25 -113 -56
-129 -61 -175 -58 -45 4 -65 14 -160 82 -104 75 -268 166 -298 166 -23 0 -40
-28 -30 -50 5 -10 56 -52 114 -93 58 -40 194 -137 303 -216 109 -78 256 -180
326 -226 176 -115 198 -143 189 -250 -6 -67 -40 -124 -167 -283 -51 -64 -109
-140 -127 -168 -30 -46 -50 -64 -74 -64 -13 0 -301 321 -295 329 2 5 30 11 61
15 102 12 194 65 194 113 0 35 -25 39 -99 13 -44 -15 -98 -24 -164 -28 l-98
-4 -32 37 c-58 68 -262 276 -279 286 -44 24 -62 -22 -30 -76 21 -34 437 -517
580 -673 63 -70 92 -109 92 -126 0 -15 -66 -119 -178 -277 l-177 -254 -143 -3
c-85 -1 -142 1 -142 7 0 5 36 82 80 172 89 181 89 184 17 220 -68 35 -323 190
-455 277 -126 83 -150 93 -171 68 -22 -27 9 -69 122 -163 15 -13 24 -29 21
-37 -10 -25 -237 -171 -378 -242 -148 -74 -134 -72 -341 -60 -107 6 -180 4
-310 -9 -93 -9 -298 -20 -455 -25 -321 -9 -385 -18 -935 -130 -773 -157 -1025
-208 -1594 -320 -337 -67 -617 -120 -621 -118 -13 5 220 501 455 973 219 440
465 908 474 899 2 -2 17 7 31 21 68 65 691 208 1505 345 183 31 318 59 365 76
116 42 382 172 520 256 184 111 851 562 990 670 173 133 225 166 304 190 75
23 103 23 521 -2 176 -10 426 -1 545 20 68 12 170 11 215 -1z m-4000 -749
c231 -47 514 -84 770 -100 88 -5 193 -15 234 -21 l75 -12 -38 -33 c-49 -42
-175 -108 -246 -128 -72 -20 -260 -56 -555 -106 -132 -22 -328 -60 -435 -84
-107 -23 -196 -42 -198 -40 -2 1 1 19 7 40 14 55 16 146 7 309 l-8 140 24 23
c49 45 179 49 363 12z m-1038 -566 c29 -39 4 -154 -36 -164 -17 -4 -54 -65
-162 -265 -264 -491 -688 -1357 -815 -1667 -92 -223 -107 -374 -47 -479 58
-102 156 -124 256 -58 25 17 131 126 235 242 105 117 200 221 213 233 22 19
108 48 117 39 8 -8 -102 -217 -166 -315 -95 -146 -193 -259 -391 -452 -248
-242 -369 -334 -611 -468 -104 -58 -437 -220 -513 -251 -56 -22 -357 -72 -442
-72 -122 -1 -190 60 -301 271 -117 220 -201 340 -326 464 -115 115 -173 194
-210 287 -32 81 -33 286 -2 381 34 101 89 241 119 301 86 169 480 784 644
1004 129 173 164 226 256 385 98 168 259 412 299 453 66 65 243 119 453 137
98 9 179 8 348 -2 292 -17 716 -15 860 5 136 19 203 16 222 -9z m3922 -1328
c31 -19 94 -53 139 -75 50 -25 82 -47 79 -54 -31 -79 -255 -617 -304 -732 -94
-216 -138 -300 -186 -352 -67 -74 -111 -84 -259 -62 -200 28 -261 49 -278 93
-13 34 -5 60 151 511 l143 412 71 36 c98 51 239 144 310 205 33 29 64 52 69
52 4 0 34 -15 65 -34z m-1129 -409 c0 -183 -40 -567 -86 -817 -67 -366 -145
-537 -281 -617 -64 -37 -109 -34 -213 15 -176 84 -327 122 -785 197 -411 67
-572 111 -749 203 -104 55 -210 148 -248 218 -36 68 -50 152 -38 229 12 78 27
121 86 245 l46 99 57 6 c106 11 176 23 281 50 217 54 689 149 946 191 127 20
219 27 459 35 165 5 332 13 370 18 39 4 89 9 113 10 l42 1 0 -83z"/>
<path d="M15041 23287 c-8 -11 -9 -27 -2 -58 17 -80 22 -302 11 -458 -12 -169
-33 -306 -79 -510 -34 -150 -31 -171 20 -171 38 0 49 25 88 198 65 287 83 467
73 737 -7 167 -9 183 -32 225 -27 47 -58 62 -79 37z"/>
<path d="M13859 23170 c-128 -10 -243 -26 -327 -47 -52 -13 -63 -20 -68 -40
-11 -42 5 -46 118 -33 56 6 146 10 198 8 l95 -3 7 -60 c8 -72 21 -109 54 -153
67 -87 218 -97 303 -19 32 30 69 111 77 169 l7 48 30 -18 c16 -9 58 -43 94
-74 67 -61 83 -68 104 -42 32 39 -73 158 -188 211 -104 48 -299 69 -504 53z"/>
<path d="M16262 23170 c-141 -15 -237 -50 -320 -118 -80 -65 -116 -162 -61
-162 11 0 46 24 77 53 96 90 132 107 132 63 0 -42 32 -123 62 -161 41 -50 96
-75 160 -75 126 1 200 78 216 225 l7 60 130 0 c72 0 164 -2 205 -5 71 -5 75
-4 78 17 2 14 -5 27 -20 37 -69 44 -481 85 -666 66z"/>
<path d="M14896 21888 c-40 -62 -70 -145 -69 -193 1 -80 31 -124 136 -194 54
-37 91 -36 100 0 9 34 -17 72 -77 112 -71 47 -76 66 -44 176 27 91 24 121 -12
121 -11 0 -26 -10 -34 -22z"/>
<path d="M15475 21557 c-45 -44 -55 -73 -33 -95 18 -18 30 -15 82 19 61 41 81
70 66 98 -19 36 -63 27 -115 -22z"/>
<path d="M15303 21045 c-78 -40 -60 -41 -194 11 -39 15 -50 16 -63 5 -28 -23
-18 -48 32 -79 118 -77 186 -80 279 -16 73 50 83 67 59 93 -25 28 -30 27 -113
-14z"/>
<path d="M14414 20905 c-19 -48 62 -86 262 -122 142 -25 166 -27 484 -27 339
-1 509 10 739 49 92 16 111 26 111 60 0 52 -18 53 -260 21 -173 -23 -383 -36
-600 -36 -228 0 -374 12 -557 46 -155 28 -172 29 -179 9z"/>
<path d="M14802 20598 c-20 -20 -14 -55 13 -72 36 -24 155 -53 272 -66 168
-20 408 15 474 68 17 14 20 25 15 45 -9 37 -34 40 -127 15 -117 -32 -363 -32
-519 0 -124 26 -113 25 -128 10z"/>
<path d="M13023 19233 c-54 -21 74 -180 381 -472 289 -275 534 -469 606 -478
81 -11 94 41 23 90 -215 148 -422 327 -739 639 -127 126 -238 228 -245 227 -8
0 -20 -3 -26 -6z"/>
<path d="M17212 19313 c-16 -15 -110 -118 -208 -228 -246 -275 -343 -374 -532
-543 -90 -80 -168 -154 -173 -164 -8 -14 -6 -26 6 -44 33 -50 75 -29 250 126
254 225 722 742 742 819 14 57 -39 78 -85 34z"/>
<path d="M8312 19083 c-12 -23 -47 -175 -66 -288 -57 -336 -121 -1276 -156
-2305 -18 -538 -18 -549 5 -566 30 -22 75 -14 99 19 18 25 21 44 24 170 8 428
25 874 47 1292 38 719 53 915 105 1382 29 252 29 289 6 305 -20 14 -55 8 -64
-9z"/>
<path d="M8650 16928 c-10 -25 -50 -365 -75 -638 -18 -204 -20 -421 -3 -438
20 -20 66 -14 82 11 14 20 45 325 86 857 15 179 5 223 -47 228 -26 3 -35 -1
-43 -20z"/>
<path d="M20858 18929 c-26 -15 -22 -46 17 -150 20 -50 34 -93 33 -94 -16 -14
-338 -166 -735 -346 l-62 -28 -36 108 c-37 113 -71 161 -112 161 -28 0 -55
-27 -49 -49 3 -9 10 -36 15 -61 6 -25 21 -83 35 -130 14 -46 24 -85 23 -86 -1
0 -65 -33 -142 -74 -77 -40 -171 -91 -210 -113 -76 -44 -175 -136 -175 -162 0
-20 26 -31 43 -17 29 23 520 233 526 225 5 -4 29 -71 56 -148 26 -77 85 -241
131 -363 46 -123 84 -226 84 -228 0 -10 -678 -330 -683 -323 -2 2 -27 67 -57
144 -72 189 -127 315 -147 337 -40 45 -102 0 -88 -64 4 -18 43 -131 86 -251
44 -120 79 -222 79 -227 0 -4 -49 -33 -110 -65 -152 -79 -199 -111 -210 -141
-14 -36 10 -74 48 -74 15 0 93 32 174 72 81 39 149 70 151 67 2 -2 56 -157
120 -344 64 -187 132 -380 150 -430 l34 -89 -56 -34 c-63 -37 -81 -56 -81 -87
0 -53 63 -69 139 -35 24 11 45 20 46 20 2 0 24 -42 48 -92 51 -108 118 -198
147 -198 29 0 26 17 -31 188 -28 84 -49 155 -47 157 2 2 163 79 358 170 195
92 358 169 362 171 12 8 233 -616 221 -627 -5 -3 -73 -30 -153 -59 -217 -78
-260 -104 -260 -154 0 -24 37 -56 65 -56 14 0 109 32 212 70 103 39 190 67
194 63 4 -5 26 -54 48 -111 74 -186 98 -222 149 -222 28 0 46 26 45 63 -1 18
-26 97 -56 177 -31 80 -52 148 -49 151 4 3 116 50 249 103 133 53 320 132 415
175 119 54 175 75 180 67 4 -6 20 -47 34 -91 54 -162 94 -212 149 -187 44 20
43 54 -8 202 -26 74 -47 138 -47 143 0 4 51 31 113 60 208 99 347 193 347 237
0 55 -30 63 -95 29 -22 -12 -124 -61 -227 -109 l-186 -88 -121 342 c-66 189
-123 349 -126 358 -5 11 67 55 296 182 166 92 305 164 309 159 8 -8 74 -250
129 -468 55 -220 81 -275 128 -275 29 0 63 33 63 62 0 23 -71 301 -146 575
-24 88 -44 167 -44 175 0 7 46 38 102 68 118 64 210 128 234 165 15 23 15 27
0 50 -9 14 -23 25 -31 25 -9 0 -88 -37 -178 -82 -89 -46 -165 -84 -169 -86 -5
-2 -8 4 -8 14 0 10 -61 200 -136 422 -75 222 -132 407 -127 411 4 4 33 18 63
30 117 49 164 98 141 147 -15 33 -35 31 -158 -16 -59 -22 -107 -39 -108 -37
-2 1 -15 27 -30 57 -54 109 -97 150 -136 129 -27 -14 -23 -44 20 -157 l31 -83
-36 -15 c-81 -34 -322 -148 -484 -229 -95 -47 -173 -85 -175 -83 -2 2 -60 138
-130 303 -70 165 -136 320 -146 344 -10 24 -19 45 -19 46 0 2 57 33 128 70
148 78 162 89 162 125 0 68 -59 65 -223 -13 l-117 -55 -36 69 c-40 76 -84 129
-106 129 -7 0 -21 -5 -30 -11z m141 -461 c18 -46 82 -201 143 -346 61 -145
109 -264 107 -266 -13 -10 -812 -416 -819 -416 -12 0 -270 700 -270 734 0 6
98 55 218 109 119 53 294 135 387 181 94 47 177 85 186 85 11 1 26 -25 48 -81z
m1224 -670 c115 -351 170 -528 165 -533 -2 -2 -88 -49 -193 -106 -104 -56
-241 -131 -304 -166 -63 -35 -115 -62 -117 -61 -1 2 -29 75 -62 163 -59 158
-175 449 -246 614 -20 46 -35 85 -33 87 13 13 663 323 678 324 4 0 54 -145
112 -322z m-894 -118 c96 -223 321 -794 321 -814 0 -18 -823 -436 -835 -424
-2 1 -28 68 -58 148 -30 80 -105 271 -166 424 -61 154 -111 283 -111 287 0 4
159 88 353 188 193 99 377 193 407 210 30 17 58 31 61 31 4 0 16 -22 28 -50z
m-812 -857 c89 -230 164 -424 165 -432 2 -10 -108 -67 -352 -182 -195 -93
-358 -168 -361 -169 -7 0 -302 870 -296 876 7 7 662 322 672 323 6 1 83 -187
172 -416z m1308 -456 c65 -185 116 -339 113 -342 -10 -10 -398 -176 -623 -266
-196 -79 -221 -87 -228 -71 -4 9 -56 152 -115 317 l-108 300 275 136 c152 75
339 171 416 212 95 51 142 72 146 64 4 -7 59 -164 124 -350z"/>
<path d="M11080 13567 c0 -24 10 -71 21 -106 26 -75 48 -90 109 -72 44 13 65
41 56 76 -13 52 -118 145 -163 145 -21 0 -23 -5 -23 -43z"/>
<path d="M11088 12849 c-25 -14 -22 -48 13 -153 33 -100 120 -290 146 -318 9
-10 26 -18 38 -18 31 0 85 39 108 78 l19 33 -28 42 c-45 69 -237 321 -253 334
-19 15 -21 15 -43 2z"/>
<path d="M18189 11982 c-50 -32 -109 -98 -109 -122 0 -43 70 -86 120 -73 29 8
72 104 73 168 2 43 -1 50 -18 53 -11 1 -41 -10 -66 -26z"/>
<path d="M18167 11238 c-60 -62 -282 -332 -285 -347 -4 -26 39 -84 80 -105 34
-19 37 -19 61 -3 47 31 194 317 213 415 11 58 -28 81 -69 40z"/>
<path d="M6930 5707 c-60 -34 -76 -48 -78 -69 -3 -21 2 -27 25 -32 48 -12 102
-54 125 -99 l23 -42 6 -650 c5 -629 6 -652 27 -718 12 -38 24 -94 28 -125 5
-52 -6 -172 -22 -229 -6 -22 -4 -23 64 -23 68 0 71 1 103 38 131 145 177 297
186 611 l6 194 156 -5 c128 -4 167 -9 216 -27 94 -35 97 -34 118 29 28 84 33
160 13 199 -32 60 -199 111 -315 95 l-46 -6 -70 -114 -70 -113 -3 457 c-1 251
2 476 7 499 l9 43 -199 65 c-110 36 -207 65 -217 65 -9 -1 -51 -20 -92 -43z"/>
<path d="M12300 5707 c-59 -34 -76 -48 -78 -68 -3 -22 3 -27 39 -39 24 -8 57
-29 75 -47 63 -63 64 -70 64 -740 l0 -603 100 0 100 0 41 53 c84 104 131 240
145 411 l7 89 151 -5 c128 -5 163 -10 230 -32 44 -15 82 -23 87 -19 15 16 49
147 49 189 0 98 -111 158 -286 152 l-89 -3 -70 -112 -70 -111 -3 365 c-1 204
2 380 7 399 l9 34 -202 65 c-111 36 -208 65 -216 65 -8 -1 -49 -20 -90 -43z"/>
<path d="M18733 5707 c-63 -34 -73 -44 -73 -67 0 -23 7 -30 45 -44 53 -21 100
-71 114 -123 7 -25 11 -335 11 -920 l0 -883 27 -77 c21 -63 27 -102 31 -200 4
-107 -6 -221 -24 -268 -5 -12 5 -15 62 -15 l69 0 26 43 c70 112 118 232 150
374 22 96 23 113 28 1083 3 542 9 992 14 1000 6 13 -27 27 -181 78 -103 34
-196 62 -207 61 -11 -1 -53 -19 -92 -42z"/>
<path d="M21290 5707 c-59 -34 -76 -48 -78 -68 -3 -22 2 -27 38 -38 57 -17
114 -76 128 -134 9 -33 12 -293 12 -931 l0 -886 26 -77 c41 -122 44 -309 7
-460 -5 -22 -3 -23 65 -23 l71 0 34 58 c83 137 131 255 164 402 14 66 17 193
22 1055 3 539 10 987 14 996 7 15 -20 26 -190 83 -109 36 -207 66 -218 65 -11
0 -54 -19 -95 -42z"/>
<path d="M5912 5609 c-11 -107 -41 -239 -63 -280 -9 -18 -28 -19 -311 -19
l-302 0 39 -41 c22 -22 61 -59 88 -81 l47 -40 93 18 c81 16 171 19 737 24
l645 5 9 28 c9 26 5 32 -65 103 l-75 75 -86 -25 c-138 -40 -276 -57 -503 -61
-214 -5 -226 1 -50 25 87 12 91 14 136 59 56 56 75 110 59 171 -26 97 -105
139 -274 147 l-111 6 -13 -114z"/>
<path d="M18179 5571 c-68 -38 -85 -51 -87 -73 -3 -21 2 -27 25 -32 48 -12
102 -54 125 -99 22 -40 23 -53 26 -319 l3 -278 -200 0 c-110 0 -202 -4 -205
-9 -5 -7 79 -87 154 -147 14 -11 64 -7 217 21 l32 6 5 -538 c2 -296 8 -569 13
-607 8 -67 2 -193 -12 -228 -10 -26 28 -23 148 10 l100 27 33 70 c44 96 62
170 74 305 6 64 11 489 13 962 l2 848 -191 64 -192 64 -83 -47z"/>
<path d="M15213 5511 c-56 -34 -57 -65 -5 -104 20 -16 54 -49 74 -73 l38 -46
-21 -40 c-85 -166 -226 -374 -383 -562 -118 -143 -360 -386 -468 -471 -54 -42
-77 -67 -77 -82 -1 -21 3 -23 52 -23 28 0 107 5 175 10 122 8 124 9 190 52
129 83 309 237 470 402 185 190 158 180 292 109 186 -100 396 -259 587 -446
l122 -119 65 22 c209 69 231 197 64 362 -121 120 -367 268 -551 331 l-67 24
-148 -33 c-81 -19 -150 -34 -154 -34 -4 0 34 56 85 124 139 188 227 333 227
377 0 20 -6 41 -13 47 -34 29 -228 116 -333 151 -161 53 -171 54 -221 22z"/>
<path d="M9819 5492 c-40 -31 -105 -61 -171 -79 -52 -13 -132 -17 -453 -20
l-390 -4 -169 30 -168 30 -84 -45 c-75 -41 -84 -49 -84 -74 0 -22 6 -29 26
-34 44 -11 72 -36 96 -84 23 -46 23 -53 26 -441 l3 -394 -36 -37 -36 -36 52
-107 c58 -123 65 -126 136 -72 75 57 154 77 331 83 l152 4 -2 -278 -3 -279
-524 -5 -525 -5 84 -77 c46 -43 88 -78 94 -78 6 0 74 11 150 25 l140 25 1016
0 1016 0 15 80 16 80 -36 10 c-20 5 -91 23 -158 40 l-123 30 -47 -34 c-103
-73 -253 -99 -553 -94 l-175 3 -3 278 -2 277 282 0 c227 -1 288 -4 308 -15 14
-8 42 -14 62 -15 l37 0 11 58 c7 31 15 74 20 95 7 34 6 39 -14 47 -50 18 -165
50 -227 61 l-65 12 -52 -38 c-115 -82 -200 -95 -634 -95 l-298 0 0 220 0 220
598 0 599 0 17 76 c9 42 14 79 12 82 -3 2 -63 18 -132 33 -127 29 -128 29
-148 10 -40 -38 -129 -70 -221 -81 -50 -5 -233 -10 -407 -10 l-318 0 0 205 0
205 550 0 c479 0 555 -2 581 -16 17 -8 47 -14 67 -12 l37 3 17 75 c9 41 17 82
17 91 1 13 -27 23 -126 48 -71 18 -135 34 -144 37 -9 2 -27 -4 -40 -14z"/>
<path d="M11710 5454 c-77 -48 -103 -54 -296 -67 l-171 -11 -210 35 -209 35
-82 -45 c-72 -39 -82 -48 -82 -72 0 -22 6 -30 34 -39 40 -13 70 -43 91 -92 12
-31 15 -89 15 -335 0 -276 -2 -300 -19 -327 l-19 -29 51 -108 c46 -95 55 -108
78 -108 15 -1 35 9 50 25 32 34 102 69 167 83 66 14 464 14 552 1 84 -14 152
-36 184 -61 l26 -20 104 56 c96 51 104 58 111 91 3 19 8 41 11 47 2 7 -25 24
-66 41 -38 17 -70 31 -70 33 0 2 16 42 35 90 l35 87 0 234 c0 227 1 236 26
308 15 41 25 76 23 78 -4 3 -282 96 -304 101 -5 2 -35 -12 -65 -31z m-70 -554
l0 -370 -225 0 -225 0 0 370 0 370 225 0 225 0 0 -370z"/>
<path d="M24069 5454 c-13 -15 -44 -36 -69 -48 -44 -21 -58 -21 -753 -26
l-707 -5 78 -78 79 -78 147 25 c145 26 155 26 648 26 l501 0 -7 -117 c-8 -132
-35 -395 -42 -402 -2 -2 -326 -30 -719 -61 -393 -31 -718 -59 -721 -62 -3 -4
36 -38 88 -76 l93 -70 140 34 c127 31 180 37 575 69 239 19 456 37 483 40 l47
6 -6 -43 c-24 -169 -116 -575 -149 -660 -6 -16 -1 -18 40 -18 43 0 63 10 211
102 182 114 167 96 226 268 88 258 174 727 181 993 l2 89 -150 53 c-82 29
-159 55 -171 59 -15 4 -27 -1 -45 -20z"/>
<path d="M17779 5290 c-72 -38 -180 -61 -309 -67 -111 -5 -144 -2 -295 26 -94
17 -177 31 -186 31 -9 0 -53 -21 -98 -46 -101 -57 -106 -77 -29 -114 38 -18
57 -35 72 -65 20 -39 21 -56 24 -539 2 -447 1 -501 -14 -523 -19 -30 -32 -14
129 -152 65 -56 122 -100 125 -98 228 126 218 122 457 182 216 54 232 60 258
91 36 42 109 88 175 109 49 16 52 19 52 52 0 28 -3 33 -17 29 -10 -3 -180 -37
-378 -76 -198 -39 -368 -73 -377 -76 -17 -5 -18 12 -18 250 l0 256 257 2 256
3 10 29 c9 27 5 33 -66 104 l-75 75 -44 -20 c-88 -41 -221 -73 -305 -73 l-33
0 0 210 0 210 307 2 307 3 8 30 c7 28 2 35 -64 102 -40 40 -77 73 -83 73 -5
-1 -26 -10 -46 -20z"/>
<path d="M20205 5279 c-166 -22 -287 -79 -391 -183 -119 -119 -174 -262 -174
-451 0 -312 172 -540 463 -615 163 -41 343 -35 497 16 261 88 410 306 410 599
0 191 -54 331 -174 451 -118 118 -262 177 -461 187 -55 3 -131 1 -170 -4z
m232 -142 c109 -57 168 -199 180 -432 9 -198 -24 -373 -90 -471 -93 -140 -308
-140 -403 -1 -67 97 -101 277 -90 477 12 246 79 390 203 436 48 18 157 13 200
-9z"/>
<path d="M6000 5054 c-166 -20 -314 -82 -408 -169 -190 -176 -189 -454 3 -633
108 -101 257 -158 445 -168 336 -19 611 125 681 358 31 100 23 212 -20 303
-86 184 -294 298 -566 309 -55 2 -116 2 -135 0z m200 -157 c92 -47 150 -175
150 -333 0 -208 -103 -348 -255 -349 -145 0 -241 122 -253 321 -15 284 160
461 358 361z"/>
<path d="M12555 4104 c-66 -25 -215 -52 -341 -63 -65 -6 -345 -11 -622 -11
-277 0 -502 -4 -500 -8 2 -4 38 -41 80 -81 l77 -73 158 26 c154 26 168 27 538
24 l380 -3 8 -280 c12 -419 13 -507 5 -542 l-7 -33 45 0 c29 0 83 15 154 42
l109 42 25 56 c45 103 58 189 66 445 5 172 12 253 23 286 l15 46 -72 72 c-39
39 -78 71 -86 70 -8 0 -33 -7 -55 -15z"/>
<path d="M5853 3874 c-68 -37 -83 -50 -83 -69 0 -19 10 -29 47 -45 59 -26 80
-44 106 -95 18 -34 22 -62 25 -188 4 -147 4 -148 -22 -186 l-27 -38 43 -89 43
-89 62 -3 c52 -2 68 1 100 22 93 62 79 60 666 64 471 3 542 1 569 -12 17 -9
48 -16 69 -16 43 0 38 -8 63 115 8 38 12 73 10 77 -8 12 -154 55 -234 69 l-76
12 -51 -37 c-105 -76 -128 -79 -490 -84 l-323 -3 0 223 c0 123 5 241 10 263 5
22 7 41 6 43 -4 3 -417 112 -426 111 -3 0 -42 -20 -87 -45z"/>
<path d="M16360 3759 c-38 -32 -113 -67 -182 -86 -57 -15 -163 -17 -1032 -20
l-969 -4 49 -50 c27 -28 66 -64 86 -81 l38 -29 148 25 148 26 1015 0 1015 0
15 80 16 80 -36 10 c-74 19 -280 70 -283 70 -2 -1 -14 -10 -28 -21z"/>
<path d="M24400 3749 c-35 -30 -110 -62 -190 -81 -30 -8 -371 -13 -1019 -17
l-974 -6 86 -79 87 -78 149 26 148 26 1020 0 1020 0 16 78 c8 42 14 79 12 80
-4 4 -306 82 -315 81 -3 0 -21 -13 -40 -30z"/>
</g>
</svg>
